<?xml version='1.0' encoding='utf-8'?>
<svg xmlns="http://www.w3.org/2000/svg" xmlns:xlink="http://www.w3.org/1999/xlink">
  <defs>
    <style>
      .ivory .main{fill:url(#ivoryMain)} .ivory .shadow{fill:#9b845b} .ivory .highlight{fill:#fff7dc}
      .ivory .accent{fill:#b99149} .ivory .detail{fill:none;stroke:#6f5a35} .ivory .outline{stroke:#443720}
      .obsidian .main{fill:url(#obsidianMain)} .obsidian .shadow{fill:#111319} .obsidian .highlight{fill:#656b76}
      .obsidian .accent{fill:#b95d30} .obsidian .detail{fill:none;stroke:#9a4a29} .obsidian .outline{stroke:#07080a}
      .main,.shadow,.highlight,.accent{stroke-width:2;stroke-linejoin:round;stroke-linecap:round}
      .detail{stroke-width:1.6;stroke-linecap:round;stroke-linejoin:round}
      .outline{stroke-linejoin:round;stroke-linecap:round}
      .eye{fill:#15130d;stroke:#f4d47b;stroke-width:.7}
      .obsidian .eye{fill:#f08a39;stroke:#1a0d08}
    </style>
    <linearGradient id="ivoryMain" x1="0" y1="0" x2="1" y2="1">
      <stop offset="0" stop-color="#fff6d8"/><stop offset=".52" stop-color="#dfcda0"/><stop offset="1" stop-color="#a88d5b"/>
    </linearGradient>
    <linearGradient id="obsidianMain" x1="0" y1="0" x2="1" y2="1">
      <stop offset="0" stop-color="#6d727d"/><stop offset=".46" stop-color="#343841"/><stop offset="1" stop-color="#121419"/>
    </linearGradient>
  </defs>
  <symbol id="piece-w-p" viewBox="0 0 100 120"><g class="ivory"><ellipse class="shadow" cx="50" cy="79" rx="20" ry="5"/><path class="main outline" d="M50 18C34 18 28 38 30 57c2 17 10 25 20 25s18-8 20-25c2-19-4-39-20-39z"/><path class="highlight" d="M40 25c-6 8-7 22-5 34 1 8 4 14 8 17-2-12-1-35 5-52-3-1-5 0-8 1z"/><path class="detail" d="M36 42l8-6 7 7 8-5 6 7M34 57l9-5 8 7 10-6M42 69l8-5 7 5"/><ellipse class="shadow outline" cx="50" cy="104" rx="33" ry="8"/><path class="main outline" d="M18 95h64l-4 10H22z"/><path class="highlight outline" d="M23 88h54l5 7H18z"/><path class="main outline" d="M28 82h44l5 6H23z"/><path class="accent outline" d="M46 89h8l4 4-4 4h-8l-4-4z"/><path class="detail" d="M29 98h42M32 85h36"/></g></symbol>
  <symbol id="piece-w-n" viewBox="0 0 100 120"><g class="ivory"><ellipse class="shadow" cx="50" cy="80" rx="24" ry="5"/><path class="main outline" d="M36 81c4-14 4-31 2-42-2-10 3-18 14-19l16-9c7-4 13-3 15 0-7 9-15 16-25 20 8 2 14 7 14 13 0 10-10 15-20 14l8 23z"/><path class="shadow outline" d="M38 40c8-4 17-5 26-4-6 6-12 10-18 13l4 32H36c4-14 4-31 2-41z"/><path class="highlight" d="M47 27c6-3 13-7 20-12-6 8-12 14-20 18-5 3-6 7-4 13-5-7-4-14 4-19z"/><path class="accent outline" d="M59 31c8-2 17-7 24-20-1 10-5 21-14 28z"/><path class="detail" d="M43 54c7 3 14 3 21 0M44 63c6 2 12 2 18 0M45 71c5 2 10 2 15 0"/><circle class="eye" cx="66" cy="29" r="2.3"/><ellipse class="shadow outline" cx="50" cy="104" rx="33" ry="8"/><path class="main outline" d="M18 95h64l-4 10H22z"/><path class="highlight outline" d="M23 88h54l5 7H18z"/><path class="main outline" d="M28 82h44l5 6H23z"/><path class="accent outline" d="M46 89h8l4 4-4 4h-8l-4-4z"/><path class="detail" d="M29 98h42M32 85h36"/></g></symbol>
  <symbol id="piece-w-b" viewBox="0 0 100 120"><g class="ivory"><ellipse class="shadow" cx="50" cy="80" rx="25" ry="5"/><path class="main outline" d="M46 77c-4-12-4-25 0-36 2-6 6-11 12-14l11-15 2 14 18 7-18 5c5 4 8 10 8 17 0 8-5 16-14 22z"/><path class="main outline" d="M48 45C36 39 25 40 14 47c10 1 18 5 24 12L23 75c11-2 20-7 28-15z"/><path class="main outline" d="M61 44c11-7 21-8 31-3-8 3-14 8-19 14l13 18c-10-2-18-7-25-14z"/><path class="shadow" d="M57 31c6 4 9 10 8 17-1 8-4 17-9 27h10c9-7 13-14 13-22 0-7-3-12-8-16l18-4-18-7-2-12z"/><path class="highlight" d="M49 43c-3 9-3 20 0 31l5-3c-2-13-1-25 4-38-4 2-7 5-9 10z"/><path class="accent outline" d="M58 27l11-15 2 14-8 6z"/><path class="detail" d="M27 49c7 2 13 6 18 12M75 46c-5 3-9 8-12 14M51 53c5 2 10 2 15 0"/><circle class="eye" cx="67" cy="29" r="2.1"/><ellipse class="shadow outline" cx="50" cy="104" rx="33" ry="8"/><path class="main outline" d="M18 95h64l-4 10H22z"/><path class="highlight outline" d="M23 88h54l5 7H18z"/><path class="main outline" d="M28 82h44l5 6H23z"/><path class="accent outline" d="M46 89h8l4 4-4 4h-8l-4-4z"/><path class="detail" d="M29 98h42M32 85h36"/></g></symbol>
  <symbol id="piece-w-r" viewBox="0 0 100 120"><g class="ivory"><ellipse class="shadow" cx="50" cy="81" rx="29" ry="6"/><path class="main outline" d="M27 61c0-15 10-26 24-29 15-3 31 4 38 17l-9 9c1 11-5 19-16 23H41c-9-3-14-10-14-20z"/><path class="accent outline" d="M31 51c0-14 8-27 21-33 13 5 23 14 27 27-9-5-17-6-25-5-8 0-16 4-23 11z"/><path class="main outline" d="M37 48L25 38l17 4-1-17 10 14 8-18 4 19 16-11-9 17z"/><path class="main outline" d="M36 49l-15 1 13 8M72 47l17-2-12 10"/><path class="shadow" d="M55 34c14 0 25 7 32 18l-8 7c1 10-5 18-16 22H52c9-8 12-17 9-27-2-8-4-14-6-20z"/><path class="highlight" d="M34 57c1-9 6-16 14-19-5 8-6 17-2 26 2 6 6 11 11 15H42c-7-3-11-10-11-18 0-1 1-3 3-4z"/><path class="detail" d="M36 57c9 4 19 5 31 2M39 67c8 3 16 3 24 1"/><path class="main outline" d="M36 74l-5 8h12l3-8M65 74l4 8h12l-7-10"/><circle class="eye" cx="49" cy="46" r="2.4"/><ellipse class="shadow outline" cx="50" cy="104" rx="33" ry="8"/><path class="main outline" d="M18 95h64l-4 10H22z"/><path class="highlight outline" d="M23 88h54l5 7H18z"/><path class="main outline" d="M28 82h44l5 6H23z"/><path class="accent outline" d="M46 89h8l4 4-4 4h-8l-4-4z"/><path class="detail" d="M29 98h42M32 85h36"/></g></symbol>
  <symbol id="piece-w-q" viewBox="0 0 100 120"><g class="ivory"><ellipse class="shadow" cx="50" cy="82" rx="30" ry="6"/><path class="main outline" d="M26 78c4-9 7-18 7-28 0-12 7-21 19-24 13-3 26 3 32 14l7 2-7 6c0 8-6 13-15 14 7 5 10 10 10 16z"/><path class="main outline" d="M66 32c8-6 17-7 25-3l-7 7 10 5-12 4-13-3z"/><path class="main outline" d="M69 45l18 2-9 7-12-3z"/><path class="shadow" d="M56 28c13 1 23 8 28 18 0 8-6 13-15 14 7 5 10 11 10 18H57c5-12 5-23 2-33-2-6-3-12-3-17z"/><path class="highlight" d="M42 31c-7 5-9 12-7 22 2 9 0 18-4 25h13c4-12 4-24 1-35-1-5-2-9-3-12z"/><path class="accent outline" d="M42 27l3-12 8 9 7-13 6 14 10-8-2 13z"/><path class="main outline" d="M43 53l-10 7 9 1M64 53l10 7-9 1"/><path class="main outline" d="M43 72l-6 10h13l3-10M65 72l3 10h14l-8-11"/><path class="detail" d="M43 45c7 3 14 3 21 0M43 56c7 3 15 3 22 0M45 66c6 3 13 3 19 0"/><circle class="eye" cx="72" cy="36" r="2.5"/><path class="detail" d="M78 42l7-1M75 50l8-1"/><ellipse class="shadow outline" cx="50" cy="104" rx="33" ry="8"/><path class="main outline" d="M18 95h64l-4 10H22z"/><path class="highlight outline" d="M23 88h54l5 7H18z"/><path class="main outline" d="M28 82h44l5 6H23z"/><path class="accent outline" d="M46 89h8l4 4-4 4h-8l-4-4z"/><path class="detail" d="M29 98h42M32 85h36"/></g></symbol>
  <symbol id="piece-w-k" viewBox="0 0 100 120"><g class="ivory"><ellipse class="shadow" cx="50" cy="82" rx="31" ry="6"/><path class="main outline" d="M35 78c-5-13-5-27 0-40 4-10 8-18 8-27l3-5c7 8 8 18 4 29-3 10-2 18 4 25l7 18z"/><path class="main outline" d="M44 13c4-9 12-12 21-8 8 3 11 10 9 17-3 8-12 12-23 8z"/><path class="main outline" d="M51 60c8-9 19-13 30-11 7 1 12 5 15 11-8-2-15-1-22 2l18 11c-12 2-23 0-32-7z"/><path class="shadow" d="M48 25c3 8 2 16-1 25-3 10 0 20 8 28H43c-5-13-5-27 0-40 2-6 4-10 5-13z"/><path class="highlight" d="M39 35c-4 12-4 25 0 38l6 4c-3-15-2-29 3-42 3-8 3-15 0-21-2 8-5 14-9 21z"/><path class="accent outline" d="M51 10l4-9 6 8 8-6 1 10z"/><path class="main outline" d="M47 68l-7 14h13l3-13M68 68l3 14h14l-8-15"/><path class="detail" d="M39 45c5 2 10 2 15 0M39 55c5 2 10 2 15 0M43 65c4 2 8 2 12 0"/><circle class="eye" cx="66" cy="14" r="2.3"/><ellipse class="shadow outline" cx="50" cy="104" rx="33" ry="8"/><path class="main outline" d="M18 95h64l-4 10H22z"/><path class="highlight outline" d="M23 88h54l5 7H18z"/><path class="main outline" d="M28 82h44l5 6H23z"/><path class="accent outline" d="M46 89h8l4 4-4 4h-8l-4-4z"/><path class="detail" d="M29 98h42M32 85h36"/></g></symbol>
  <symbol id="piece-b-p" viewBox="0 0 100 120"><g class="obsidian"><ellipse class="shadow" cx="50" cy="79" rx="20" ry="5"/><path class="main outline" d="M50 18C34 18 28 38 30 57c2 17 10 25 20 25s18-8 20-25c2-19-4-39-20-39z"/><path class="highlight" d="M40 25c-6 8-7 22-5 34 1 8 4 14 8 17-2-12-1-35 5-52-3-1-5 0-8 1z"/><path class="detail" d="M36 42l8-6 7 7 8-5 6 7M34 57l9-5 8 7 10-6M42 69l8-5 7 5"/><ellipse class="shadow outline" cx="50" cy="104" rx="33" ry="8"/><path class="main outline" d="M18 95h64l-4 10H22z"/><path class="highlight outline" d="M23 88h54l5 7H18z"/><path class="main outline" d="M28 82h44l5 6H23z"/><path class="accent outline" d="M46 89h8l4 4-4 4h-8l-4-4z"/><path class="detail" d="M29 98h42M32 85h36"/></g></symbol>
  <symbol id="piece-b-n" viewBox="0 0 100 120"><g class="obsidian"><ellipse class="shadow" cx="50" cy="80" rx="24" ry="5"/><path class="main outline" d="M36 81c4-14 4-31 2-42-2-10 3-18 14-19l16-9c7-4 13-3 15 0-7 9-15 16-25 20 8 2 14 7 14 13 0 10-10 15-20 14l8 23z"/><path class="shadow outline" d="M38 40c8-4 17-5 26-4-6 6-12 10-18 13l4 32H36c4-14 4-31 2-41z"/><path class="highlight" d="M47 27c6-3 13-7 20-12-6 8-12 14-20 18-5 3-6 7-4 13-5-7-4-14 4-19z"/><path class="accent outline" d="M59 31c8-2 17-7 24-20-1 10-5 21-14 28z"/><path class="detail" d="M43 54c7 3 14 3 21 0M44 63c6 2 12 2 18 0M45 71c5 2 10 2 15 0"/><circle class="eye" cx="66" cy="29" r="2.3"/><ellipse class="shadow outline" cx="50" cy="104" rx="33" ry="8"/><path class="main outline" d="M18 95h64l-4 10H22z"/><path class="highlight outline" d="M23 88h54l5 7H18z"/><path class="main outline" d="M28 82h44l5 6H23z"/><path class="accent outline" d="M46 89h8l4 4-4 4h-8l-4-4z"/><path class="detail" d="M29 98h42M32 85h36"/></g></symbol>
  <symbol id="piece-b-b" viewBox="0 0 100 120"><g class="obsidian"><ellipse class="shadow" cx="50" cy="80" rx="25" ry="5"/><path class="main outline" d="M46 77c-4-12-4-25 0-36 2-6 6-11 12-14l11-15 2 14 18 7-18 5c5 4 8 10 8 17 0 8-5 16-14 22z"/><path class="main outline" d="M48 45C36 39 25 40 14 47c10 1 18 5 24 12L23 75c11-2 20-7 28-15z"/><path class="main outline" d="M61 44c11-7 21-8 31-3-8 3-14 8-19 14l13 18c-10-2-18-7-25-14z"/><path class="shadow" d="M57 31c6 4 9 10 8 17-1 8-4 17-9 27h10c9-7 13-14 13-22 0-7-3-12-8-16l18-4-18-7-2-12z"/><path class="highlight" d="M49 43c-3 9-3 20 0 31l5-3c-2-13-1-25 4-38-4 2-7 5-9 10z"/><path class="accent outline" d="M58 27l11-15 2 14-8 6z"/><path class="detail" d="M27 49c7 2 13 6 18 12M75 46c-5 3-9 8-12 14M51 53c5 2 10 2 15 0"/><circle class="eye" cx="67" cy="29" r="2.1"/><ellipse class="shadow outline" cx="50" cy="104" rx="33" ry="8"/><path class="main outline" d="M18 95h64l-4 10H22z"/><path class="highlight outline" d="M23 88h54l5 7H18z"/><path class="main outline" d="M28 82h44l5 6H23z"/><path class="accent outline" d="M46 89h8l4 4-4 4h-8l-4-4z"/><path class="detail" d="M29 98h42M32 85h36"/></g></symbol>
  <symbol id="piece-b-r" viewBox="0 0 100 120"><g class="obsidian"><ellipse class="shadow" cx="50" cy="81" rx="29" ry="6"/><path class="main outline" d="M27 61c0-15 10-26 24-29 15-3 31 4 38 17l-9 9c1 11-5 19-16 23H41c-9-3-14-10-14-20z"/><path class="accent outline" d="M31 51c0-14 8-27 21-33 13 5 23 14 27 27-9-5-17-6-25-5-8 0-16 4-23 11z"/><path class="main outline" d="M37 48L25 38l17 4-1-17 10 14 8-18 4 19 16-11-9 17z"/><path class="main outline" d="M36 49l-15 1 13 8M72 47l17-2-12 10"/><path class="shadow" d="M55 34c14 0 25 7 32 18l-8 7c1 10-5 18-16 22H52c9-8 12-17 9-27-2-8-4-14-6-20z"/><path class="highlight" d="M34 57c1-9 6-16 14-19-5 8-6 17-2 26 2 6 6 11 11 15H42c-7-3-11-10-11-18 0-1 1-3 3-4z"/><path class="detail" d="M36 57c9 4 19 5 31 2M39 67c8 3 16 3 24 1"/><path class="main outline" d="M36 74l-5 8h12l3-8M65 74l4 8h12l-7-10"/><circle class="eye" cx="49" cy="46" r="2.4"/><ellipse class="shadow outline" cx="50" cy="104" rx="33" ry="8"/><path class="main outline" d="M18 95h64l-4 10H22z"/><path class="highlight outline" d="M23 88h54l5 7H18z"/><path class="main outline" d="M28 82h44l5 6H23z"/><path class="accent outline" d="M46 89h8l4 4-4 4h-8l-4-4z"/><path class="detail" d="M29 98h42M32 85h36"/></g></symbol>
  <symbol id="piece-b-q" viewBox="0 0 100 120"><g class="obsidian"><ellipse class="shadow" cx="50" cy="82" rx="30" ry="6"/><path class="main outline" d="M26 78c4-9 7-18 7-28 0-12 7-21 19-24 13-3 26 3 32 14l7 2-7 6c0 8-6 13-15 14 7 5 10 10 10 16z"/><path class="main outline" d="M66 32c8-6 17-7 25-3l-7 7 10 5-12 4-13-3z"/><path class="main outline" d="M69 45l18 2-9 7-12-3z"/><path class="shadow" d="M56 28c13 1 23 8 28 18 0 8-6 13-15 14 7 5 10 11 10 18H57c5-12 5-23 2-33-2-6-3-12-3-17z"/><path class="highlight" d="M42 31c-7 5-9 12-7 22 2 9 0 18-4 25h13c4-12 4-24 1-35-1-5-2-9-3-12z"/><path class="accent outline" d="M42 27l3-12 8 9 7-13 6 14 10-8-2 13z"/><path class="main outline" d="M43 53l-10 7 9 1M64 53l10 7-9 1"/><path class="main outline" d="M43 72l-6 10h13l3-10M65 72l3 10h14l-8-11"/><path class="detail" d="M43 45c7 3 14 3 21 0M43 56c7 3 15 3 22 0M45 66c6 3 13 3 19 0"/><circle class="eye" cx="72" cy="36" r="2.5"/><path class="detail" d="M78 42l7-1M75 50l8-1"/><ellipse class="shadow outline" cx="50" cy="104" rx="33" ry="8"/><path class="main outline" d="M18 95h64l-4 10H22z"/><path class="highlight outline" d="M23 88h54l5 7H18z"/><path class="main outline" d="M28 82h44l5 6H23z"/><path class="accent outline" d="M46 89h8l4 4-4 4h-8l-4-4z"/><path class="detail" d="M29 98h42M32 85h36"/></g></symbol>
  <symbol id="piece-b-k" viewBox="0 0 100 120"><g class="obsidian"><ellipse class="shadow" cx="50" cy="82" rx="31" ry="6"/><path class="main outline" d="M35 78c-5-13-5-27 0-40 4-10 8-18 8-27l3-5c7 8 8 18 4 29-3 10-2 18 4 25l7 18z"/><path class="main outline" d="M44 13c4-9 12-12 21-8 8 3 11 10 9 17-3 8-12 12-23 8z"/><path class="main outline" d="M51 60c8-9 19-13 30-11 7 1 12 5 15 11-8-2-15-1-22 2l18 11c-12 2-23 0-32-7z"/><path class="shadow" d="M48 25c3 8 2 16-1 25-3 10 0 20 8 28H43c-5-13-5-27 0-40 2-6 4-10 5-13z"/><path class="highlight" d="M39 35c-4 12-4 25 0 38l6 4c-3-15-2-29 3-42 3-8 3-15 0-21-2 8-5 14-9 21z"/><path class="accent outline" d="M51 10l4-9 6 8 8-6 1 10z"/><path class="main outline" d="M47 68l-7 14h13l3-13M68 68l3 14h14l-8-15"/><path class="detail" d="M39 45c5 2 10 2 15 0M39 55c5 2 10 2 15 0M43 65c4 2 8 2 12 0"/><circle class="eye" cx="66" cy="14" r="2.3"/><ellipse class="shadow outline" cx="50" cy="104" rx="33" ry="8"/><path class="main outline" d="M18 95h64l-4 10H22z"/><path class="highlight outline" d="M23 88h54l5 7H18z"/><path class="main outline" d="M28 82h44l5 6H23z"/><path class="accent outline" d="M46 89h8l4 4-4 4h-8l-4-4z"/><path class="detail" d="M29 98h42M32 85h36"/></g></symbol>
</svg>
